<mxfile host="app.diagrams.net" modified="2021-04-06T13:07:42.573Z" agent="5.0 (Macintosh; Intel Mac OS X 11_1_0) AppleWebKit/537.36 (KHTML, like Gecko) Chrome/89.0.4389.114 Safari/537.36" etag="CS9ZxeQYXZ9hidEUlxQr" version="14.5.7" type="github">
  <diagram name="Page-1" id="3e8102d1-ef87-2e61-34e1-82d9a586fe2e">
    <mxGraphModel dx="946" dy="471" grid="1" gridSize="10" guides="1" tooltips="1" connect="1" arrows="1" fold="1" page="1" pageScale="1" pageWidth="1100" pageHeight="850" background="#ffffff" math="0" shadow="0">
      <root>
        <mxCell id="0" />
        <mxCell id="1" parent="0" />
        <mxCell id="xcmVUShJEnWZzSjYLjy5-2" value="" style="shape=mxgraph.signs.transportation.car_3;html=1;pointerEvents=1;strokeColor=#b85450;verticalLabelPosition=bottom;verticalAlign=top;align=center;fillColor=#FF0000;" vertex="1" parent="1">
          <mxGeometry x="460" y="97" width="99" height="38" as="geometry" />
        </mxCell>
        <mxCell id="xcmVUShJEnWZzSjYLjy5-6" style="edgeStyle=orthogonalEdgeStyle;rounded=0;orthogonalLoop=1;jettySize=auto;html=1;exitX=0;exitY=0.5;exitDx=0;exitDy=0;exitPerimeter=0;" edge="1" parent="1" source="xcmVUShJEnWZzSjYLjy5-3">
          <mxGeometry relative="1" as="geometry">
            <mxPoint x="440" y="208" as="targetPoint" />
          </mxGeometry>
        </mxCell>
        <mxCell id="xcmVUShJEnWZzSjYLjy5-3" value="" style="shape=mxgraph.signs.transportation.car_3;html=1;pointerEvents=1;fillColor=#000000;strokeColor=none;verticalLabelPosition=bottom;verticalAlign=top;align=center;flipV=0;flipH=1;" vertex="1" parent="1">
          <mxGeometry x="150" y="189" width="99" height="38" as="geometry" />
        </mxCell>
        <mxCell id="xcmVUShJEnWZzSjYLjy5-7" value="" style="endArrow=none;dashed=1;html=1;dashPattern=1 3;strokeWidth=2;" edge="1" parent="1">
          <mxGeometry width="50" height="50" relative="1" as="geometry">
            <mxPoint x="50" y="300" as="sourcePoint" />
            <mxPoint x="780" y="300" as="targetPoint" />
          </mxGeometry>
        </mxCell>
        <mxCell id="xcmVUShJEnWZzSjYLjy5-9" value="" style="shape=mxgraph.signs.transportation.car_3;html=1;pointerEvents=1;strokeColor=#b85450;verticalLabelPosition=bottom;verticalAlign=top;align=center;fillColor=#FF0000;" vertex="1" parent="1">
          <mxGeometry x="160" y="367" width="99" height="38" as="geometry" />
        </mxCell>
        <mxCell id="xcmVUShJEnWZzSjYLjy5-11" style="edgeStyle=orthogonalEdgeStyle;rounded=0;orthogonalLoop=1;jettySize=auto;html=1;exitX=0;exitY=0.5;exitDx=0;exitDy=0;exitPerimeter=0;" edge="1" parent="1" source="xcmVUShJEnWZzSjYLjy5-10">
          <mxGeometry relative="1" as="geometry">
            <mxPoint x="330" y="444" as="targetPoint" />
          </mxGeometry>
        </mxCell>
        <mxCell id="xcmVUShJEnWZzSjYLjy5-10" value="" style="shape=mxgraph.signs.transportation.car_3;html=1;pointerEvents=1;fillColor=#000000;strokeColor=none;verticalLabelPosition=bottom;verticalAlign=top;align=center;flipV=0;flipH=0;" vertex="1" parent="1">
          <mxGeometry x="550" y="425" width="99" height="38" as="geometry" />
        </mxCell>
        <mxCell id="xcmVUShJEnWZzSjYLjy5-12" value="" style="rounded=1;whiteSpace=wrap;html=1;fillColor=#0000FF;" vertex="1" parent="1">
          <mxGeometry x="270" y="376" width="50" height="20" as="geometry" />
        </mxCell>
      </root>
    </mxGraphModel>
  </diagram>
</mxfile>
